<svg width="56" height="56" viewBox="0 0 56 56" fill="none" xmlns="http://www.w3.org/2000/svg">
<path d="M28.0082 4.56673C28.4647 4.56673 28.8347 4.19672 28.8347 3.74019V0.826547C28.8347 0.370016 28.4647 0 28.0082 0C27.5517 0 27.1816 0.370016 27.1816 0.826547V3.74019C27.1816 4.19672 27.5517 4.56673 28.0082 4.56673Z" fill="url(#paint0_linear_185_748)"/>
<path d="M17.9987 6.91565C18.1601 7.07719 18.3717 7.15791 18.5834 7.15791C18.7948 7.15791 19.0062 7.0773 19.1677 6.91619C19.4905 6.59354 19.4908 6.07007 19.1682 5.74719L17.1086 3.68591C16.7857 3.36293 16.2623 3.36293 15.9396 3.68536C15.6167 4.00802 15.6165 4.53149 15.939 4.85436L17.9987 6.91565Z" fill="url(#paint1_linear_185_748)"/>
<path d="M37.4331 7.15791C37.645 7.15791 37.8568 7.07697 38.0183 6.9152L40.0747 4.85393C40.3972 4.53083 40.3965 4.00747 40.0733 3.68493C39.7502 3.3626 39.2269 3.36325 38.9043 3.68635L36.8478 5.74763C36.5254 6.07072 36.5261 6.59408 36.8493 6.91663C37.0107 7.07752 37.2219 7.15791 37.4331 7.15791Z" fill="url(#paint2_linear_185_748)"/>
<path d="M51.7438 23.0493C50.1646 23.0493 48.8351 24.1361 48.465 25.6003H42.011C42.0602 25.1184 42.0873 24.6144 42.0868 24.0826C42.0851 22.5069 41.8715 21.0099 41.4565 19.6126H49.6997C50.9325 19.6126 51.9354 18.6091 51.9354 17.3757V12.4057C53.4018 12.0363 54.4905 10.7083 54.4905 9.13054C54.4905 7.2681 52.9735 5.75293 51.1089 5.75293C49.2426 5.75293 47.7242 7.26799 47.7242 9.13054C47.7242 10.7085 48.8143 12.0367 50.2823 12.4059V17.3758C50.2823 17.6923 50.0155 17.9597 49.6997 17.9597H40.8507C40.1646 16.4019 39.1994 14.9976 37.968 13.7848C35.3477 11.2037 31.7166 9.74927 27.9983 9.80123C25.2621 9.76327 22.4976 10.5637 20.204 12.0443C19.8205 12.2918 19.7101 12.8035 19.9579 13.187C20.2053 13.5706 20.7172 13.6808 21.1006 13.4331C23.127 12.1252 25.5734 11.4187 27.9877 11.4543H28.0102C28.0674 11.4534 28.1243 11.453 28.1815 11.453C31.4023 11.453 34.5381 12.7267 36.808 14.9624C37.9886 16.1253 38.892 17.4925 39.5019 19.0216C39.5138 19.0619 39.5291 19.1005 39.5467 19.1379C40.1303 20.6454 40.4317 22.3073 40.4337 24.0844C40.4344 24.8647 40.3704 25.5792 40.2538 26.2419C40.2476 26.2689 40.2428 26.2964 40.2393 26.3243C39.7028 29.2446 38.1299 31.1441 36.4825 33.1327C34.5888 35.4186 32.6348 37.7771 32.3912 41.6753H28.825V29.5224H31.139C31.5955 29.5224 31.9655 29.1524 31.9655 28.6959C31.9655 28.2393 31.5955 27.8693 31.139 27.8693H24.8612C24.4046 27.8693 24.0346 28.2393 24.0346 28.6959C24.0346 29.1524 24.4046 29.5224 24.8612 29.5224H27.1719V41.6753H23.6089C23.3654 37.7771 21.4114 35.4185 19.5176 33.1327C17.4835 30.6772 15.5621 28.358 15.5665 24.0842C15.5692 20.7488 16.6416 17.7855 18.6676 15.5145C18.9715 15.1738 18.9417 14.6513 18.6011 14.3475C18.2604 14.0434 17.7378 14.0735 17.4341 14.414C16.4877 15.4746 15.7252 16.6652 15.1546 17.9596H6.30066C5.98489 17.9596 5.71802 17.6922 5.71802 17.3757V12.4057C7.18441 12.0363 8.27313 10.7083 8.27313 9.13054C8.27313 7.2681 6.7561 5.75293 4.89147 5.75293C3.02684 5.75293 1.50992 7.2681 1.50992 9.13054C1.50992 10.7083 2.59864 12.0363 4.06503 12.4057V17.3757C4.06503 18.6092 5.068 19.6126 6.30077 19.6126H14.5481C14.1302 21.0141 13.9149 22.5128 13.9137 24.0826C13.9132 24.6144 13.9404 25.1184 13.9895 25.6003H7.5355C7.16538 24.1362 5.83592 23.0493 4.25666 23.0493C2.39203 23.0493 0.875 24.5643 0.875 26.4269C0.875 28.2894 2.39203 29.8045 4.25666 29.8045C5.83581 29.8045 7.16538 28.7176 7.5355 27.2534H14.2653C14.9699 30.2321 16.6277 32.2353 18.2449 34.1874C18.3613 34.3279 18.4774 34.468 18.5927 34.6081H10.4322C9.19942 34.6081 8.19646 35.6102 8.19646 36.8419V41.812C6.73006 42.1817 5.64135 43.511 5.64135 45.0902C5.64135 46.9526 7.15838 48.4678 9.023 48.4678C10.8893 48.4678 12.4077 46.9527 12.4077 45.0902C12.4077 43.5107 11.3176 42.1813 9.84955 41.8118V36.8418C9.84955 36.5216 10.111 36.2611 10.4322 36.2611H19.8802C20.9545 37.768 21.7859 39.4288 21.9506 41.6753H20.9653C19.6317 41.6753 18.5468 42.7594 18.5468 44.092V48.4936C18.5468 49.8279 19.6318 50.9134 20.9653 50.9134H22.7124V52.6286C22.7124 54.4877 24.2237 56 26.0816 56H29.9065C31.7627 56 33.2727 54.4877 33.2727 52.6286V50.9134H35.0197C36.3533 50.9134 37.4382 49.828 37.4382 48.4936V44.092C37.4382 42.7594 36.3532 41.6753 35.0197 41.6753H34.05C34.2148 39.4288 35.0461 37.768 36.1203 36.2611H45.5684C45.8879 36.2611 46.148 36.5216 46.148 36.8418V41.8119C44.6816 42.1816 43.5928 43.5109 43.5928 45.0901C43.5928 46.9525 45.1099 48.4677 46.9745 48.4677C48.8408 48.4677 50.3592 46.9526 50.3592 45.0901C50.3592 43.5106 49.2691 42.1811 47.8011 41.8117V36.8418C47.8011 35.6101 46.7995 34.608 45.5685 34.608H37.408C37.5233 34.468 37.6393 34.3279 37.7558 34.1873C39.3729 32.2353 41.0307 30.232 41.7353 27.2533H48.4652C48.8353 28.7174 50.1648 29.8044 51.744 29.8044C53.6086 29.8044 55.1257 28.2893 55.1257 26.4268C55.1257 24.5642 53.6084 23.0493 51.7438 23.0493ZM49.3773 9.13054C49.3773 8.17974 50.1541 7.40602 51.1089 7.40602C52.062 7.40602 52.8374 8.17974 52.8374 9.13054C52.8374 10.0813 52.062 10.8551 51.1089 10.8551C50.1541 10.8551 49.3773 10.0813 49.3773 9.13054ZM3.16291 9.13054C3.16291 8.17974 3.93838 7.40602 4.89147 7.40602C5.84456 7.40602 6.62003 8.17974 6.62003 9.13054C6.62003 10.0813 5.84456 10.8551 4.89147 10.8551C3.93838 10.8551 3.16291 10.0813 3.16291 9.13054ZM4.25666 28.1513C3.30356 28.1513 2.52809 27.3776 2.52809 26.4268C2.52809 25.476 3.30356 24.7023 4.25666 24.7023C5.20975 24.7023 5.98522 25.476 5.98522 26.4268C5.98522 27.3777 5.20975 28.1513 4.25666 28.1513ZM10.7546 45.0901C10.7546 46.0409 9.97774 46.8146 9.023 46.8146C8.06991 46.8146 7.29444 46.0409 7.29444 45.0901C7.29444 44.1374 8.06991 43.3624 9.023 43.3624C9.97774 43.3624 10.7546 44.1374 10.7546 45.0901ZM31.6196 52.6285C31.6196 53.5759 30.851 54.3468 29.9065 54.3468H26.0816C25.1354 54.3468 24.3654 53.5759 24.3654 52.6285V50.9133H31.6196V52.6285ZM35.0197 43.3284C35.4417 43.3284 35.7851 43.6709 35.7851 44.092V45.4662H30.0737C29.6171 45.4662 29.2471 45.8362 29.2471 46.2928C29.2471 46.7493 29.6171 47.1193 30.0737 47.1193H35.7851V48.4936C35.7851 48.9163 35.4417 49.2603 35.0197 49.2603H32.4461H23.5389H20.9653C20.5434 49.2603 20.1999 48.9163 20.1999 48.4936V47.1193H25.6109C26.0675 47.1193 26.4375 46.7493 26.4375 46.2928C26.4375 45.8362 26.0675 45.4662 25.6109 45.4662H20.1999V44.092C20.1999 43.6709 20.5434 43.3284 20.9653 43.3284H22.8081H33.1925H35.0197ZM48.706 45.0901C48.706 46.0409 47.9291 46.8146 46.9744 46.8146C46.0213 46.8146 45.2458 46.0409 45.2458 45.0901C45.2458 44.1374 46.0213 43.3624 46.9744 43.3624C47.9291 43.3624 48.706 44.1374 48.706 45.0901ZM51.7438 28.1513C50.7907 28.1513 50.0152 27.3776 50.0152 26.4268C50.0152 25.476 50.7907 24.7023 51.7438 24.7023C52.6969 24.7023 53.4724 25.476 53.4724 26.4268C53.4724 27.3777 52.6969 28.1513 51.7438 28.1513Z" fill="url(#paint3_linear_185_748)"/>
<defs>
<linearGradient id="paint0_linear_185_748" x1="28.0082" y1="0" x2="28.0082" y2="4.56673" gradientUnits="userSpaceOnUse">
<stop stop-color="#FFDA76"/>
<stop offset="1" stop-color="#FC9825"/>
</linearGradient>
<linearGradient id="paint1_linear_185_748" x1="17.5536" y1="3.4436" x2="17.5536" y2="7.15791" gradientUnits="userSpaceOnUse">
<stop stop-color="#FFDA76"/>
<stop offset="1" stop-color="#FC9825"/>
</linearGradient>
<linearGradient id="paint2_linear_185_748" x1="38.4613" y1="3.4436" x2="38.4613" y2="7.15791" gradientUnits="userSpaceOnUse">
<stop stop-color="#FFDA76"/>
<stop offset="1" stop-color="#FC9825"/>
</linearGradient>
<linearGradient id="paint3_linear_185_748" x1="28.0003" y1="5.75293" x2="28.0003" y2="56" gradientUnits="userSpaceOnUse">
<stop stop-color="#FFDA76"/>
<stop offset="1" stop-color="#FC9825"/>
</linearGradient>
</defs>
</svg>
