<svg width="56" height="56" viewBox="0 0 56 56" fill="none" xmlns="http://www.w3.org/2000/svg">
<path d="M37.8438 0C33.7103 0 29.8161 1.3533 26.5822 3.91366C23.6089 6.26762 21.4266 9.52973 20.3875 13.151C9.05264 13.7004 0 23.0939 0 34.5625C0 46.3832 9.6168 56 21.4375 56C32.9061 56 42.2996 46.9474 42.849 35.6125C46.4703 34.5735 49.7322 32.3912 52.0862 29.4179C54.6467 26.1839 56 22.2897 56 18.1562C56 8.14483 47.8552 0 37.8438 0ZM21.4375 54.3594C10.5214 54.3594 1.64062 45.4786 1.64062 34.5625C1.64062 23.6464 10.5214 14.7656 21.4375 14.7656C32.3536 14.7656 41.2344 23.6464 41.2344 34.5625C41.2344 45.4786 32.3536 54.3594 21.4375 54.3594ZM42.8636 33.896C42.5169 22.604 33.396 13.4831 22.104 13.1364C24.2679 6.31717 30.5966 1.64062 37.8438 1.64062C46.9505 1.64062 54.3594 9.04947 54.3594 18.1562C54.3594 25.4034 49.6829 31.7321 42.8636 33.896Z" fill="url(#paint0_linear_185_758)"/>
<path d="M21.4375 16.4062C11.4262 16.4062 3.28125 24.5512 3.28125 34.5625C3.28125 44.5738 11.4262 52.7188 21.4375 52.7188C31.4488 52.7188 39.5938 44.5738 39.5938 34.5625C39.5938 24.5512 31.4488 16.4062 21.4375 16.4062ZM21.4375 51.0781C12.3307 51.0781 4.92188 43.6693 4.92188 34.5625C4.92188 25.4557 12.3307 18.0469 21.4375 18.0469C30.5443 18.0469 37.9531 25.4557 37.9531 34.5625C37.9531 43.6693 30.5443 51.0781 21.4375 51.0781Z" fill="url(#paint1_linear_185_758)"/>
<path d="M21.4827 20.4174C21.4212 19.9685 21.0087 19.6556 20.5587 19.716C20.1098 19.7774 19.7958 20.1911 19.8573 20.64C20.9563 28.6685 27.3311 35.0433 35.3597 36.1423C35.3975 36.1475 35.4349 36.15 35.472 36.15C35.8756 36.15 36.2273 35.8518 36.2837 35.4409C36.3451 34.992 36.031 34.5783 35.5822 34.5169C28.2801 33.5173 22.4823 27.7195 21.4827 20.4174Z" fill="url(#paint2_linear_185_758)"/>
<defs>
<linearGradient id="paint0_linear_185_758" x1="28" y1="0" x2="28" y2="56" gradientUnits="userSpaceOnUse">
<stop stop-color="#FFDA76"/>
<stop offset="1" stop-color="#FC9825"/>
</linearGradient>
<linearGradient id="paint1_linear_185_758" x1="21.4375" y1="16.4062" x2="21.4375" y2="52.7188" gradientUnits="userSpaceOnUse">
<stop stop-color="#FFDA76"/>
<stop offset="1" stop-color="#FC9825"/>
</linearGradient>
<linearGradient id="paint2_linear_185_758" x1="28.0705" y1="19.7085" x2="28.0705" y2="36.15" gradientUnits="userSpaceOnUse">
<stop stop-color="#FFDA76"/>
<stop offset="1" stop-color="#FC9825"/>
</linearGradient>
</defs>
</svg>
