<svg width="48" height="56" viewBox="0 0 48 56" fill="none" xmlns="http://www.w3.org/2000/svg">
<path d="M47.0126 9.66996C39.3077 7.55881 31.5575 4.27155 24.5998 0.163652C24.2302 -0.0545507 23.7716 -0.0545507 23.4022 0.163652C16.2438 4.38956 8.91241 7.49898 0.988756 9.66996C0.476882 9.81007 0.12207 10.2753 0.12207 10.8061V22.8424C0.12207 35.2371 5.84007 43.4415 10.637 48.1414C15.8013 53.2017 21.8169 56 24.001 56C26.1849 56 32.2005 53.2017 37.3647 48.1414C42.1616 43.4416 47.8793 35.2372 47.8793 22.8424V10.806C47.8793 10.2753 47.5244 9.81007 47.0126 9.66996ZM45.5233 22.8423C45.5233 34.4188 40.1901 42.0745 35.7158 46.4585C30.6374 51.4345 25.2077 53.6439 24.001 53.6439C22.7943 53.6439 17.3642 51.4345 12.2858 46.4585C7.81156 42.0744 2.47811 34.4188 2.47811 22.8423V11.7003C10.0554 9.54888 17.112 6.54644 24.0012 2.54299C30.7184 6.44023 38.1271 9.59198 45.5233 11.6998V22.8423Z" fill="url(#paint0_linear_185_771)"/>
<path d="M13.5592 11.5684C13.3208 10.963 12.6369 10.6656 12.0314 10.9041C9.92698 11.7333 7.76704 12.4965 5.61159 13.1727C5.12038 13.3269 4.78613 13.7819 4.78613 14.2966V18.8456C4.78613 19.4962 5.31365 20.0236 5.9641 20.0236C6.61455 20.0236 7.14207 19.4962 7.14207 18.8456V15.1575C9.07571 14.5319 11.0073 13.8399 12.895 13.096C13.5004 12.8577 13.7978 12.1737 13.5592 11.5684Z" fill="url(#paint1_linear_185_771)"/>
<path d="M15.7969 11.792C15.9549 11.792 16.1154 11.7602 16.2693 11.693L16.2909 11.6836C16.8869 11.4224 17.1553 10.7286 16.8941 10.1329C16.6327 9.5369 15.935 9.26729 15.3397 9.52826L15.3207 9.53646C14.7243 9.79688 14.4551 10.4901 14.7155 11.0862C14.9087 11.5287 15.3424 11.792 15.7969 11.792Z" fill="url(#paint2_linear_185_771)"/>
<path d="M38.0352 37.9839C37.4908 37.6281 36.7609 37.7812 36.4046 38.3257C35.4339 39.8115 34.2951 41.2342 33.0194 42.554C31.9702 43.6393 30.8334 44.6508 29.6404 45.5602C29.1232 45.9546 29.0237 46.6938 29.418 47.2112C29.6499 47.5152 30.0007 47.6751 30.3555 47.6751C30.6047 47.6751 30.8557 47.5964 31.069 47.4337C32.3558 46.4525 33.5819 45.3617 34.713 44.1916C36.0924 42.7649 37.325 41.2249 38.377 39.6144C38.733 39.0697 38.5798 38.3397 38.0352 37.9839Z" fill="url(#paint3_linear_185_771)"/>
<path d="M26.9047 47.4076L26.8371 47.4475C26.2741 47.7735 26.0817 48.4941 26.4077 49.057C26.6261 49.4344 27.0215 49.645 27.4283 49.645C27.6284 49.645 27.8316 49.594 28.0172 49.4862L28.0952 49.4404C28.6566 49.1116 28.8452 48.3901 28.5164 47.8286C28.1874 47.2674 27.4658 47.0792 26.9047 47.4076Z" fill="url(#paint4_linear_185_771)"/>
<path d="M15.9717 25.5957C15.2484 24.8723 14.2864 24.4742 13.2633 24.4742C12.2402 24.4742 11.2782 24.8724 10.5545 25.5957C9.06125 27.0894 9.06125 29.5197 10.5545 31.0132L17.5104 37.9688C18.2338 38.692 19.1957 39.0902 20.2189 39.0902C21.2421 39.0902 22.2041 38.692 22.9276 37.9686L37.4483 23.4477C38.9415 21.9538 38.9415 19.5238 37.4481 18.0307C36.7247 17.3073 35.7628 16.9092 34.7394 16.9092C33.7162 16.9092 32.7543 17.3074 32.0308 18.0307L20.2188 29.8427L15.9717 25.5957ZM33.6968 19.6967C33.9751 19.4184 34.3456 19.2651 34.7396 19.2651C35.1337 19.2651 35.5039 19.4184 35.7824 19.6967C36.3572 20.2715 36.3572 21.2071 35.7822 21.7821L21.2617 36.3027C20.9833 36.581 20.6129 36.7343 20.2189 36.7343C19.825 36.7343 19.4545 36.581 19.176 36.3027L12.2204 29.3473C11.6455 28.7723 11.6454 27.8367 12.2202 27.262C12.4987 26.9836 12.8691 26.8301 13.2632 26.8301C13.6573 26.8301 14.0275 26.9834 14.3059 27.2617L19.3858 32.3418C19.6069 32.5626 19.9063 32.6867 20.2188 32.6867C20.5313 32.6867 20.8308 32.5627 21.0516 32.3418L33.6968 19.6967Z" fill="url(#paint5_linear_185_771)"/>
<defs>
<linearGradient id="paint0_linear_185_771" x1="24.0007" y1="0" x2="24.0007" y2="56" gradientUnits="userSpaceOnUse">
<stop stop-color="#FFDA76"/>
<stop offset="1" stop-color="#FC9825"/>
</linearGradient>
<linearGradient id="paint1_linear_185_771" x1="9.21384" y1="10.8218" x2="9.21384" y2="20.0236" gradientUnits="userSpaceOnUse">
<stop stop-color="#FFDA76"/>
<stop offset="1" stop-color="#FC9825"/>
</linearGradient>
<linearGradient id="paint2_linear_185_771" x1="15.8051" y1="9.42871" x2="15.8051" y2="11.792" gradientUnits="userSpaceOnUse">
<stop stop-color="#FFDA76"/>
<stop offset="1" stop-color="#FC9825"/>
</linearGradient>
<linearGradient id="paint3_linear_185_771" x1="33.8729" y1="37.792" x2="33.8729" y2="47.6751" gradientUnits="userSpaceOnUse">
<stop stop-color="#FFDA76"/>
<stop offset="1" stop-color="#FC9825"/>
</linearGradient>
<linearGradient id="paint4_linear_185_771" x1="27.4636" y1="47.2461" x2="27.4636" y2="49.645" gradientUnits="userSpaceOnUse">
<stop stop-color="#FFDA76"/>
<stop offset="1" stop-color="#FC9825"/>
</linearGradient>
<linearGradient id="paint5_linear_185_771" x1="24.0014" y1="16.9092" x2="24.0014" y2="39.0902" gradientUnits="userSpaceOnUse">
<stop stop-color="#FFDA76"/>
<stop offset="1" stop-color="#FC9825"/>
</linearGradient>
</defs>
</svg>
