<svg width="54" height="54" viewBox="0 0 54 54" fill="none" xmlns="http://www.w3.org/2000/svg">
<path d="M24.3886 28.0126L28.012 24.3888C28.0831 24.3177 28.1395 24.2334 28.178 24.1405C28.2166 24.0477 28.2364 23.9481 28.2364 23.8476C28.2364 23.7471 28.2166 23.6475 28.178 23.5546C28.1395 23.4618 28.0831 23.3774 28.012 23.3064L26.0817 21.3761C26.4785 20.649 26.7966 19.8817 27.0306 19.0871H29.7589C29.962 19.0871 30.1567 19.0065 30.3003 18.8629C30.4439 18.7193 30.5245 18.5246 30.5245 18.3215V13.1975C30.5245 12.9945 30.4439 12.7997 30.3003 12.6561C30.1567 12.5126 29.962 12.4319 29.7589 12.4319H27.0368C26.8025 11.6362 26.4834 10.8681 26.0848 10.1407L28.012 8.21309C28.0831 8.14202 28.1396 8.05762 28.1781 7.96472C28.2166 7.87182 28.2364 7.77224 28.2364 7.67168C28.2364 7.57111 28.2166 7.47153 28.1781 7.37863C28.1396 7.28573 28.0831 7.20134 28.012 7.13027L24.3886 3.50646C24.3176 3.43532 24.2332 3.37888 24.1403 3.34037C24.0475 3.30186 23.9479 3.28204 23.8474 3.28204C23.7469 3.28204 23.6473 3.30186 23.5545 3.34037C23.4616 3.37888 23.3772 3.43532 23.3062 3.50646L21.3786 5.43452C20.6512 5.03594 19.8831 4.71677 19.0874 4.48252V1.75952C19.0874 1.65896 19.0677 1.55938 19.0292 1.46646C18.9908 1.37355 18.9344 1.28912 18.8633 1.21801C18.7922 1.14691 18.7077 1.09052 18.6148 1.05206C18.5219 1.0136 18.4223 0.993839 18.3218 0.993897H13.1973C13.0968 0.993839 12.9972 1.0136 12.9043 1.05206C12.8114 1.09052 12.7269 1.14691 12.6558 1.21801C12.5847 1.28912 12.5283 1.37355 12.4899 1.46646C12.4514 1.55938 12.4316 1.65896 12.4317 1.75952V4.48733C11.6373 4.72167 10.8701 5.03992 10.1431 5.43671L8.21333 3.50646C8.14226 3.4353 8.05787 3.37886 7.96497 3.34034C7.87207 3.30183 7.77249 3.282 7.67192 3.282C7.57136 3.282 7.47178 3.30183 7.37888 3.34034C7.28598 3.37886 7.20158 3.4353 7.13052 3.50646L3.5067 7.13027C3.43555 7.20134 3.3791 7.28573 3.34059 7.37863C3.30207 7.47153 3.28225 7.57111 3.28225 7.67168C3.28225 7.77224 3.30207 7.87182 3.34059 7.96472C3.3791 8.05762 3.43555 8.14202 3.5067 8.21309L5.43608 10.1429C5.03932 10.8701 4.72107 11.6374 4.4867 12.4319H1.75977C1.65921 12.4318 1.55962 12.4516 1.46671 12.4901C1.37379 12.5285 1.28937 12.5849 1.21826 12.656C1.14715 12.7271 1.09076 12.8115 1.0523 12.9045C1.01385 12.9974 0.994083 13.097 0.994141 13.1975V18.3215C0.994083 18.4221 1.01385 18.5217 1.0523 18.6146C1.09076 18.7075 1.14715 18.7919 1.21826 18.863C1.28937 18.9341 1.37379 18.9905 1.46671 19.029C1.55962 19.0674 1.65921 19.0872 1.75977 19.0871H4.48233C4.71669 19.8828 5.03601 20.651 5.43477 21.3783L3.5067 23.3064C3.43556 23.3774 3.37912 23.4618 3.34061 23.5546C3.30211 23.6475 3.28229 23.7471 3.28229 23.8476C3.28229 23.9481 3.30211 24.0477 3.34061 24.1405C3.37912 24.2334 3.43556 24.3177 3.5067 24.3888L7.12964 28.0126C7.27334 28.156 7.46805 28.2365 7.67105 28.2365C7.87405 28.2365 8.06876 28.156 8.21245 28.0126L10.1401 26.0845C10.8677 26.4831 11.6359 26.8024 12.4317 27.037V29.76C12.4317 29.963 12.5124 30.1578 12.656 30.3013C12.7995 30.4449 12.9943 30.5256 13.1973 30.5256H18.3218C18.5248 30.5256 18.7196 30.4449 18.8631 30.3013C19.0067 30.1578 19.0874 29.963 19.0874 29.76V27.0317C19.8818 26.7974 20.649 26.4791 21.376 26.0823L23.3062 28.0126C23.4498 28.1561 23.6444 28.2366 23.8474 28.2366C24.0504 28.2366 24.245 28.1561 24.3886 28.0126ZM22.0431 24.5839C21.9215 24.4621 21.7624 24.3848 21.5915 24.3647C21.4205 24.3445 21.2478 24.3826 21.1012 24.4728C20.1865 25.0352 19.1882 25.4487 18.1437 25.6978C17.9766 25.7379 17.8277 25.8331 17.7212 25.9679C17.6146 26.1028 17.5565 26.2696 17.5561 26.4415V28.9921H13.963V26.4485C13.9627 26.2765 13.9045 26.1095 13.7978 25.9746C13.691 25.8396 13.5419 25.7446 13.3745 25.7048C12.3301 25.455 11.3324 25.0398 10.4192 24.475C10.2724 24.3845 10.0995 24.3461 9.9282 24.3661C9.75695 24.3861 9.59746 24.4633 9.47552 24.5852L7.6717 26.3877L5.13158 23.8467L6.93408 22.0438C7.05587 21.9219 7.13299 21.7624 7.153 21.5913C7.17301 21.4201 7.13472 21.2472 7.04433 21.1005C6.47951 20.1867 6.06461 19.1884 5.81539 18.1435C5.77557 17.9761 5.68053 17.827 5.5456 17.7202C5.41066 17.6135 5.2437 17.5553 5.07164 17.555H2.52539V13.9627H5.07558C5.2475 13.9624 5.41433 13.9043 5.54923 13.7978C5.68414 13.6912 5.77927 13.5423 5.81933 13.3751C6.06816 12.3308 6.48167 11.3328 7.04433 10.4185C7.13435 10.2717 7.17233 10.0989 7.15218 9.92786C7.13202 9.75683 7.05489 9.59757 6.9332 9.47571L5.13158 7.67146L7.6717 5.13133L9.47595 6.93558C9.5977 7.0573 9.7569 7.13446 9.92787 7.15462C10.0988 7.17478 10.2716 7.13677 10.4183 7.04671C11.3329 6.48431 12.331 6.07082 13.3754 5.82171C13.5425 5.78158 13.6914 5.68643 13.7979 5.55154C13.9045 5.41665 13.9626 5.24986 13.963 5.07796V2.52515H17.5561V5.07096C17.5564 5.24302 17.6146 5.40998 17.7213 5.54491C17.8281 5.67985 17.9772 5.77489 18.1446 5.81471C19.1895 6.06385 20.1878 6.47859 21.1016 7.04321C21.2482 7.13399 21.4212 7.1725 21.5925 7.15248C21.7637 7.13246 21.9232 7.05509 22.0449 6.93296L23.8474 5.13046L26.388 7.67146L24.5855 9.4744C24.4637 9.59642 24.3866 9.7559 24.3666 9.92711C24.3466 10.0983 24.3849 10.2713 24.4752 10.4181C25.04 11.3317 25.4548 12.3299 25.7037 13.3747C25.7435 13.5421 25.8386 13.6912 25.9735 13.798C26.1084 13.9047 26.2754 13.9629 26.4475 13.9631H28.9933V17.5559H26.4426C26.2707 17.5563 26.1038 17.6145 25.969 17.7211C25.8341 17.8278 25.7389 17.9767 25.6989 18.1439C25.4498 19.1883 25.0363 20.1864 24.4739 21.101C24.3837 21.2476 24.3456 21.4203 24.3658 21.5912C24.386 21.7622 24.4632 21.9213 24.585 22.0429L26.388 23.8476L23.8474 26.3877L22.0431 24.5839Z" fill="url(#paint0_linear_185_734)"/>
<path d="M15.7585 9.13208C14.4477 9.13208 13.1663 9.52079 12.0764 10.249C10.9865 10.9773 10.137 12.0124 9.63537 13.2235C9.13373 14.4345 9.00248 15.7671 9.25821 17.0528C9.51394 18.3384 10.1452 19.5193 11.0721 20.4462C11.999 21.3731 13.1799 22.0044 14.4656 22.2601C15.7512 22.5158 17.0838 22.3846 18.2949 21.8829C19.5059 21.3813 20.541 20.5318 21.2693 19.4419C21.9975 18.352 22.3862 17.0706 22.3862 15.7598C22.3843 14.0026 21.6854 12.318 20.4429 11.0755C19.2004 9.83295 17.5157 9.13405 15.7585 9.13208ZM15.7585 20.8571C14.7506 20.8571 13.7653 20.5582 12.9272 19.9982C12.0891 19.4383 11.4359 18.6424 11.0501 17.7112C10.6644 16.78 10.5634 15.7553 10.76 14.7667C10.9566 13.7781 11.4419 12.87 12.1545 12.1572C12.8672 11.4444 13.7752 10.959 14.7637 10.7622C15.7523 10.5655 16.777 10.6663 17.7083 11.0519C18.6395 11.4375 19.4355 12.0906 19.9957 12.9286C20.5558 13.7666 20.8548 14.7518 20.855 15.7598C20.8534 17.1109 20.3159 18.4063 19.3605 19.3617C18.4051 20.3171 17.1097 20.8546 15.7585 20.8562V20.8571Z" fill="url(#paint1_linear_185_734)"/>
<path d="M52.2412 34.9135H49.5182C49.284 34.1179 48.9648 33.3497 48.5662 32.6223L50.4938 30.6943C50.565 30.6233 50.6214 30.5389 50.6599 30.446C50.6984 30.3532 50.7183 30.2536 50.7183 30.1531C50.7183 30.0526 50.6984 29.953 50.6599 29.8602C50.6214 29.7673 50.565 29.6829 50.4938 29.6119L46.8705 25.989C46.7994 25.9178 46.715 25.8614 46.6221 25.8229C46.5292 25.7843 46.4296 25.7645 46.3291 25.7645C46.2285 25.7645 46.1289 25.7843 46.036 25.8229C45.9431 25.8614 45.8587 25.9178 45.7877 25.989L43.86 27.9162C43.1327 27.5176 42.3647 27.1983 41.5693 26.9637V24.2407C41.5693 24.0377 41.4886 23.8429 41.345 23.6993C41.2014 23.5558 41.0067 23.4751 40.8037 23.4751H35.6792C35.4762 23.4751 35.2814 23.5558 35.1378 23.6993C34.9943 23.8429 34.9136 24.0377 34.9136 24.2407V26.969C34.119 27.2032 33.3517 27.5215 32.6246 27.9183L30.6948 25.989C30.6237 25.9178 30.5394 25.8614 30.4465 25.8229C30.3537 25.7844 30.2541 25.7646 30.1536 25.7646C30.0531 25.7646 29.9535 25.7844 29.8606 25.8229C29.7678 25.8614 29.6834 25.9178 29.6124 25.989L25.9886 29.6119C25.8451 29.7555 25.7645 29.9501 25.7645 30.1531C25.7645 30.3561 25.8451 30.5507 25.9886 30.6943L27.9193 32.6245C27.5223 33.3516 27.2042 34.1189 26.9703 34.9135H24.2412C24.0382 34.9135 23.8434 34.9942 23.6998 35.1378C23.5562 35.2814 23.4756 35.4761 23.4756 35.6792V40.8032C23.4756 41.0062 23.5562 41.201 23.6998 41.3445C23.8434 41.4881 24.0382 41.5688 24.2412 41.5688H26.9642C27.1985 42.3644 27.5176 43.1326 27.9162 43.86L25.9886 45.7876C25.8451 45.9312 25.7645 46.126 25.7645 46.329C25.7645 46.532 25.8451 46.7268 25.9886 46.8704L29.6124 50.4942C29.6834 50.5654 29.7678 50.6218 29.8606 50.6603C29.9535 50.6988 30.0531 50.7186 30.1536 50.7186C30.2541 50.7186 30.3537 50.6988 30.4465 50.6603C30.5394 50.6218 30.6237 50.5654 30.6948 50.4942L32.6224 48.5692C33.3497 48.9679 34.1179 49.2871 34.9136 49.5212V52.2442C34.9135 52.3448 34.9333 52.4444 34.9717 52.5373C35.0102 52.6302 35.0666 52.7146 35.1377 52.7857C35.2088 52.8568 35.2932 52.9132 35.3862 52.9517C35.4791 52.9901 35.5787 53.0099 35.6792 53.0098H40.8032C40.9038 53.0099 41.0034 52.9901 41.0963 52.9517C41.1892 52.9132 41.2736 52.8568 41.3447 52.7857C41.4158 52.7146 41.4722 52.6302 41.5107 52.5373C41.5491 52.4444 41.5689 52.3448 41.5688 52.2442V49.5164C42.3634 49.282 43.1308 48.9636 43.8578 48.5666L45.7877 50.4964C45.8587 50.5676 45.9431 50.624 46.036 50.6625C46.1289 50.701 46.2285 50.7209 46.3291 50.7209C46.4296 50.7209 46.5292 50.701 46.6221 50.6625C46.715 50.624 46.7994 50.5676 46.8705 50.4964L50.4938 46.8735C50.565 46.8024 50.6214 46.718 50.66 46.6251C50.6985 46.5322 50.7183 46.4326 50.7183 46.3321C50.7183 46.2315 50.6985 46.1319 50.66 46.039C50.6214 45.9461 50.565 45.8617 50.4938 45.7907L48.564 43.8604C48.9608 43.1334 49.2791 42.3662 49.5134 41.5718H52.2412C52.3418 41.5719 52.4414 41.5521 52.5343 41.5137C52.6272 41.4752 52.7116 41.4188 52.7827 41.3477C52.8538 41.2766 52.9102 41.1922 52.9487 41.0993C52.9871 41.0064 53.0069 40.9068 53.0068 40.8062V35.6792C53.0069 35.5786 52.9871 35.479 52.9487 35.3861C52.9102 35.2932 52.8538 35.2088 52.7827 35.1377C52.7116 35.0665 52.6272 35.0101 52.5343 34.9717C52.4414 34.9332 52.3418 34.9135 52.2412 34.9135ZM51.4756 40.038H48.9254C48.7535 40.0382 48.5867 40.0963 48.4517 40.2029C48.3168 40.3095 48.2217 40.4583 48.1817 40.6255C47.9325 41.6699 47.519 42.668 46.9566 43.5826C46.8667 43.7293 46.8287 43.9021 46.8489 44.073C46.869 44.244 46.9461 44.4032 47.0678 44.525L48.8725 46.3297L46.3319 48.8698L44.5276 47.0655C44.4058 46.944 44.2466 46.867 44.0757 46.8468C43.9048 46.8267 43.7321 46.8646 43.5853 46.9544C42.6705 47.5167 41.6722 47.9302 40.6278 48.1794C40.4606 48.2195 40.3117 48.3146 40.2052 48.4495C40.0986 48.5844 40.0405 48.7512 40.0402 48.9232V51.4733H36.4448V48.9275C36.4446 48.7555 36.3864 48.5885 36.2796 48.4536C36.1729 48.3186 36.0238 48.2236 35.8564 48.1838C34.8115 47.9346 33.8132 47.5199 32.8993 46.9553C32.7527 46.8646 32.5797 46.8261 32.4085 46.8461C32.2373 46.8661 32.0778 46.9435 31.9561 47.0655L30.1536 48.868L27.613 46.3292L29.4155 44.5263C29.5375 44.4044 29.6147 44.2449 29.6347 44.0736C29.6547 43.9023 29.6164 43.7293 29.5258 43.5826C28.9613 42.6689 28.5467 41.6707 28.2977 40.626C28.2579 40.4586 28.1629 40.3095 28.0279 40.2027C27.893 40.096 27.726 40.0378 27.554 40.0375H25.0068V36.4448H27.557C27.729 36.4444 27.8958 36.3862 28.0307 36.2796C28.1656 36.1729 28.2607 36.024 28.3008 35.8568C28.5498 34.8124 28.9633 33.8143 29.5258 32.8997C29.616 32.7531 29.654 32.5804 29.6339 32.4094C29.6137 32.2385 29.5365 32.0794 29.4146 31.9578L27.613 30.1531L30.1536 27.613L31.9578 29.4172C32.0793 29.5392 32.2385 29.6165 32.4095 29.6367C32.5804 29.6569 32.7532 29.6187 32.8998 29.5283C33.8145 28.9659 34.8128 28.5524 35.8573 28.3033C36.0244 28.2632 36.1732 28.1681 36.2798 28.0332C36.3864 27.8983 36.4445 27.7315 36.4448 27.5596V25.009H40.038V27.5548C40.0383 27.7268 40.0965 27.8938 40.2032 28.0287C40.31 28.1637 40.4591 28.2587 40.6265 28.2985C41.6712 28.5479 42.6694 28.9628 43.5831 29.5275C43.7298 29.6182 43.9028 29.6567 44.0741 29.6367C44.2454 29.6167 44.405 29.5393 44.5268 29.4172L46.3293 27.613L48.8698 30.1535L47.0669 31.9565C46.945 32.0783 46.8679 32.2378 46.8479 32.4089C46.8279 32.5801 46.8662 32.753 46.9566 32.8997C47.5212 33.8134 47.9358 34.8116 48.1847 35.8563C48.2244 36.0238 48.3195 36.173 48.4544 36.2799C48.5893 36.3867 48.7563 36.445 48.9285 36.4452H51.4743L51.4756 40.038Z" fill="url(#paint2_linear_185_734)"/>
<path d="M38.2419 31.6133C36.9311 31.6133 35.6497 32.002 34.5598 32.7302C33.4699 33.4585 32.6204 34.4936 32.1188 35.7047C31.6171 36.9157 31.4859 38.2483 31.7416 39.534C31.9973 40.8196 32.6286 42.0005 33.5555 42.9274C34.4824 43.8543 35.6633 44.4856 36.9489 44.7413C38.2346 44.997 39.5672 44.8658 40.7783 44.3641C41.9893 43.8625 43.0244 43.013 43.7527 41.9231C44.4809 40.8332 44.8696 39.5518 44.8696 38.241C44.8677 36.4838 44.1688 34.7992 42.9263 33.5567C41.6837 32.3142 39.9991 31.6152 38.2419 31.6133ZM38.2419 43.3383C37.234 43.3383 36.2486 43.0394 35.4105 42.4794C34.5724 41.9194 33.9192 41.1234 33.5335 40.1922C33.1477 39.2609 33.0468 38.2362 33.2434 37.2476C33.4401 36.259 33.9255 35.3509 34.6382 34.6381C35.351 33.9254 36.2591 33.44 37.2477 33.2433C38.2363 33.0467 39.261 33.1476 40.1923 33.5333C41.1235 33.9191 41.9195 34.5723 42.4795 35.4104C43.0395 36.2485 43.3384 37.2339 43.3384 38.2418C43.3366 39.5929 42.7991 40.8881 41.8437 41.8433C40.8883 42.7986 39.593 43.3359 38.2419 43.3374V43.3383Z" fill="url(#paint3_linear_185_734)"/>
<path d="M32.5601 8.12516C37.0084 9.43471 40.8501 12.2757 43.4053 16.1454C42.7925 16.7001 42.405 17.4607 42.3166 18.2826C42.2282 19.1044 42.445 19.93 42.9258 20.6024C43.4065 21.2747 44.1177 21.7468 44.924 21.9289C45.7303 22.111 46.5753 21.9903 47.2984 21.5898C48.0214 21.1892 48.572 20.5369 48.8453 19.7568C49.1186 18.9767 49.0956 18.1234 48.7806 17.3592C48.4656 16.595 47.8807 15.9733 47.1371 15.6123C46.3935 15.2514 45.5432 15.1764 44.7479 15.4017C41.9953 11.1804 37.8271 8.07945 32.9928 6.65647C32.8957 6.6259 32.7935 6.61497 32.6922 6.62435C32.5908 6.63372 32.4924 6.6632 32.4026 6.71107C32.3128 6.75893 32.2334 6.82422 32.1691 6.90312C32.1049 6.98201 32.057 7.07293 32.0282 7.17055C31.9995 7.26818 31.9905 7.37055 32.0018 7.47169C32.0131 7.57283 32.0444 7.6707 32.094 7.75958C32.1436 7.84846 32.2103 7.92657 32.2904 7.98934C32.3705 8.05211 32.4623 8.09829 32.5605 8.12516H32.5601ZM47.474 18.6326C47.474 18.9936 47.367 19.3465 47.1664 19.6467C46.9658 19.9468 46.6808 20.1808 46.3472 20.3189C46.0137 20.4571 45.6467 20.4932 45.2927 20.4228C44.9386 20.3523 44.6134 20.1785 44.3581 19.9232C44.1028 19.668 43.929 19.3428 43.8586 18.9887C43.7881 18.6346 43.8243 18.2676 43.9624 17.9341C44.1006 17.6006 44.3345 17.3155 44.6347 17.115C44.9349 16.9144 45.2878 16.8073 45.6488 16.8073C46.1327 16.8078 46.5967 17.0003 46.9389 17.3425C47.2811 17.6847 47.4735 18.1487 47.474 18.6326Z" fill="url(#paint4_linear_185_734)"/>
<path d="M21.4383 45.875C16.9907 44.565 13.1499 41.724 10.5953 37.8548C11.2081 37.3001 11.5956 36.5394 11.684 35.7176C11.7724 34.8958 11.5556 34.0702 11.0748 33.3978C10.594 32.7255 9.88284 32.2533 9.07659 32.0713C8.27033 31.8892 7.42527 32.0099 6.70223 32.4104C5.97919 32.8109 5.42863 33.4633 5.15531 34.2434C4.882 35.0234 4.90502 35.8768 5.21998 36.641C5.53494 37.4052 6.11987 38.0269 6.86345 38.3878C7.60703 38.7488 8.45737 38.8238 9.25264 38.5985C12.0046 42.8195 16.172 45.9204 21.0056 47.3437C21.0759 47.3645 21.1489 47.375 21.2222 47.3748C21.4061 47.3744 21.5837 47.3078 21.7225 47.1872C21.8614 47.0667 21.9522 46.9002 21.9784 46.7181C22.0045 46.5361 21.9643 46.3508 21.8651 46.196C21.7658 46.0411 21.6142 45.9272 21.4379 45.875H21.4383ZM6.52439 35.3676C6.52456 35.0066 6.63176 34.6538 6.83243 34.3538C7.03309 34.0537 7.31822 33.8199 7.65175 33.6819C7.98529 33.5439 8.35226 33.5079 8.70626 33.5784C9.06027 33.6489 9.38542 33.8228 9.64059 34.0781C9.89577 34.3334 10.0695 34.6587 10.1399 35.0127C10.2102 35.3667 10.174 35.7337 10.0359 36.0672C9.89769 36.4006 9.66374 36.6856 9.3636 36.8862C9.06346 37.0867 8.7106 37.1937 8.34964 37.1937C7.86554 37.1932 7.40142 37.0007 7.0592 36.6583C6.71697 36.3159 6.52462 35.8517 6.52439 35.3676Z" fill="url(#paint5_linear_185_734)"/>
<defs>
<linearGradient id="paint0_linear_185_734" x1="15.7593" y1="0.993896" x2="15.7593" y2="30.5256" gradientUnits="userSpaceOnUse">
<stop stop-color="#FFDA76"/>
<stop offset="1" stop-color="#FC9825"/>
</linearGradient>
<linearGradient id="paint1_linear_185_734" x1="15.7585" y1="9.13208" x2="15.7585" y2="22.3874" gradientUnits="userSpaceOnUse">
<stop stop-color="#FFDA76"/>
<stop offset="1" stop-color="#FC9825"/>
</linearGradient>
<linearGradient id="paint2_linear_185_734" x1="38.2412" y1="23.4751" x2="38.2412" y2="53.0098" gradientUnits="userSpaceOnUse">
<stop stop-color="#FFDA76"/>
<stop offset="1" stop-color="#FC9825"/>
</linearGradient>
<linearGradient id="paint3_linear_185_734" x1="38.2419" y1="31.6133" x2="38.2419" y2="44.8686" gradientUnits="userSpaceOnUse">
<stop stop-color="#FFDA76"/>
<stop offset="1" stop-color="#FC9825"/>
</linearGradient>
<linearGradient id="paint4_linear_185_734" x1="40.5159" y1="6.62109" x2="40.5159" y2="22.0117" gradientUnits="userSpaceOnUse">
<stop stop-color="#FFDA76"/>
<stop offset="1" stop-color="#FC9825"/>
</linearGradient>
<linearGradient id="paint5_linear_185_734" x1="13.476" y1="31.9885" x2="13.476" y2="47.3748" gradientUnits="userSpaceOnUse">
<stop stop-color="#FFDA76"/>
<stop offset="1" stop-color="#FC9825"/>
</linearGradient>
</defs>
</svg>
