<svg width="36" height="36" viewBox="0 0 36 36" fill="none" xmlns="http://www.w3.org/2000/svg">
<path opacity="0.4" d="M9 3H27C30.3137 3 33 5.68629 33 9V27C33 30.3137 30.3137 33 27 33H9C5.68629 33 3 30.3137 3 27V9C3 5.68629 5.68629 3 9 3Z" fill="#EFB022"/>
<path fill-rule="evenodd" clip-rule="evenodd" d="M24.6907 12.612C25.1811 12.9935 25.2695 13.7003 24.888 14.1907L18.8775 21.9185C17.942 23.1214 16.1821 23.2775 15.0494 22.2581L11.2474 18.8363C10.7856 18.4206 10.7482 17.7093 11.1638 17.2475C11.5794 16.7856 12.2908 16.7482 12.7526 17.1638L16.5546 20.5857C16.7164 20.7313 16.9678 20.709 17.1015 20.5372L23.112 12.8094C23.4934 12.3189 24.2003 12.2306 24.6907 12.612Z" fill="#EFB022"/>
</svg>
