<svg width="25" height="28" viewBox="0 0 25 28" fill="none" xmlns="http://www.w3.org/2000/svg">
<path d="M9.70636 11.7344C8.90916 11.7344 8.27979 12.4337 8.27979 13.2868C8.27979 14.14 8.92314 14.8393 9.70636 14.8393C10.5036 14.8393 11.1329 14.14 11.1329 13.2868C11.1469 12.4337 10.5036 11.7344 9.70636 11.7344ZM14.8112 11.7344C14.014 11.7344 13.3847 12.4337 13.3847 13.2868C13.3847 14.14 14.028 14.8393 14.8112 14.8393C15.6084 14.8393 16.2378 14.14 16.2378 13.2868C16.2378 12.4337 15.6084 11.7344 14.8112 11.7344Z" fill="white"/>
<path d="M21.6084 0H2.86713C1.28671 0 0 1.28671 0 2.88112V21.7902C0 23.3846 1.28671 24.6713 2.86713 24.6713H18.7273L17.986 22.0839L19.7762 23.7482L21.4685 25.3147L24.4755 27.972V2.88112C24.4755 1.28671 23.1888 0 21.6084 0ZM16.2098 18.2657C16.2098 18.2657 15.7063 17.6643 15.2867 17.1329C17.1189 16.6154 17.8182 15.4685 17.8182 15.4685C17.2447 15.8461 16.6993 16.1119 16.2098 16.2937C15.5105 16.5874 14.8391 16.7832 14.1818 16.8951C12.8391 17.1468 11.6084 17.0769 10.5594 16.8811C9.76223 16.7273 9.07691 16.5035 8.50349 16.2797C8.18181 16.1538 7.83216 16 7.48251 15.8042C7.44055 15.7762 7.39859 15.7622 7.35664 15.7343C7.32866 15.7203 7.31468 15.7063 7.30069 15.6923C7.04894 15.5524 6.90908 15.4545 6.90908 15.4545C6.90908 15.4545 7.58041 16.5734 9.35663 17.1049C8.93705 17.6363 8.41957 18.2657 8.41957 18.2657C5.32867 18.1678 4.15384 16.1398 4.15384 16.1398C4.15384 11.6364 6.16783 7.98601 6.16783 7.98601C8.18181 6.47552 10.0979 6.51748 10.0979 6.51748L10.2378 6.68531C7.72027 7.41258 6.55943 8.51747 6.55943 8.51747C6.55943 8.51747 6.86713 8.34964 7.38461 8.11188C8.88111 7.45454 10.0699 7.27272 10.5594 7.23076C10.6433 7.21678 10.7133 7.20279 10.7972 7.20279C11.6503 7.0909 12.6154 7.06293 13.6224 7.17482C14.951 7.32866 16.3776 7.72027 17.8322 8.51747C17.8322 8.51747 16.7273 7.46852 14.3496 6.74125L14.5454 6.51748C14.5454 6.51748 16.4615 6.47552 18.4755 7.98601C18.4755 7.98601 20.4895 11.6364 20.4895 16.1398C20.4895 16.1398 19.3007 18.1678 16.2098 18.2657V18.2657Z" fill="white"/>
</svg>
