<svg width="24" height="25" viewBox="0 0 24 25" fill="none" xmlns="http://www.w3.org/2000/svg">
<path d="M12.007 2.1622C15.2152 2.1622 15.5951 2.17627 16.8568 2.23256C18.0293 2.28415 18.6625 2.48114 19.0846 2.6453C19.6428 2.86105 20.0461 3.12371 20.4636 3.54114C20.8857 3.96326 21.1436 4.36193 21.3594 4.92007C21.5235 5.34219 21.7205 5.98007 21.7721 7.14794C21.8284 8.4143 21.8425 8.79422 21.8425 11.9977C21.8425 15.2058 21.8284 15.5857 21.7721 16.8474C21.7205 18.0199 21.5235 18.6531 21.3594 19.0752C21.1436 19.6334 20.881 20.0367 20.4636 20.4542C20.0414 20.8763 19.6428 21.1343 19.0846 21.35C18.6625 21.5142 18.0246 21.7112 16.8568 21.7628C15.5904 21.819 15.2105 21.8331 12.007 21.8331C8.79891 21.8331 8.419 21.819 7.15732 21.7628C5.98476 21.7112 5.35157 21.5142 4.92945 21.35C4.37131 21.1343 3.96795 20.8716 3.55052 20.4542C3.1284 20.0321 2.87043 19.6334 2.65468 19.0752C2.49052 18.6531 2.29353 18.0152 2.24194 16.8474C2.18566 15.581 2.17159 15.2011 2.17159 11.9977C2.17159 8.78953 2.18566 8.40961 2.24194 7.14794C2.29353 5.97538 2.49052 5.34219 2.65468 4.92007C2.87043 4.36193 3.13309 3.95857 3.55052 3.54114C3.97264 3.11902 4.37131 2.86105 4.92945 2.6453C5.35157 2.48114 5.98945 2.28415 7.15732 2.23256C8.419 2.17627 8.79891 2.1622 12.007 2.1622ZM12.007 0C8.74731 0 8.33926 0.0140707 7.05882 0.0703537C5.78308 0.126637 4.906 0.333008 4.14618 0.628493C3.35353 0.93805 2.68282 1.3461 2.01681 2.01681C1.3461 2.68282 0.93805 3.35353 0.628493 4.14149C0.333008 4.906 0.126637 5.77839 0.0703537 7.05413C0.0140707 8.33926 0 8.74731 0 12.007C0 15.2668 0.0140707 15.6748 0.0703537 16.9552C0.126637 18.231 0.333008 19.1081 0.628493 19.8679C0.93805 20.6605 1.3461 21.3312 2.01681 21.9973C2.68282 22.6633 3.35353 23.076 4.14149 23.3809C4.906 23.6764 5.77839 23.8827 7.05413 23.939C8.33457 23.9953 8.74262 24.0094 12.0023 24.0094C15.2621 24.0094 15.6701 23.9953 16.9506 23.939C18.2263 23.8827 19.1034 23.6764 19.8632 23.3809C20.6512 23.076 21.3219 22.6633 21.9879 21.9973C22.6539 21.3312 23.0666 20.6605 23.3715 19.8726C23.667 19.1081 23.8734 18.2357 23.9296 16.9599C23.9859 15.6795 24 15.2714 24 12.0117C24 8.752 23.9859 8.34395 23.9296 7.06351C23.8734 5.78777 23.667 4.91069 23.3715 4.15087C23.076 3.35353 22.668 2.68282 21.9973 2.01681C21.3313 1.35079 20.6605 0.93805 19.8726 0.633183C19.1081 0.337698 18.2357 0.131327 16.9599 0.075044C15.6748 0.0140707 15.2668 0 12.007 0Z" fill="white"/>
<path d="M12.007 5.83936C8.60191 5.83936 5.83936 8.60191 5.83936 12.007C5.83936 15.4122 8.60191 18.1747 12.007 18.1747C15.4122 18.1747 18.1747 15.4122 18.1747 12.007C18.1747 8.60191 15.4122 5.83936 12.007 5.83936ZM12.007 16.0078C9.79792 16.0078 8.00625 14.2161 8.00625 12.007C8.00625 9.79792 9.79792 8.00625 12.007 8.00625C14.2161 8.00625 16.0078 9.79792 16.0078 12.007C16.0078 14.2161 14.2161 16.0078 12.007 16.0078Z" fill="white"/>
<path d="M19.8586 5.59518C19.8586 6.39252 19.2113 7.03509 18.4187 7.03509C17.6213 7.03509 16.9788 6.38783 16.9788 5.59518C16.9788 4.79784 17.626 4.15527 18.4187 4.15527C19.2113 4.15527 19.8586 4.80253 19.8586 5.59518Z" fill="white"/>
</svg>
