<svg width="28" height="25" viewBox="0 0 28 25" fill="none" xmlns="http://www.w3.org/2000/svg">
<path d="M1.61993 13.9925L1.71521 13.8427L7.46021 4.85537C7.54417 4.7238 7.74156 4.7374 7.80508 4.88033C8.76486 7.03129 9.59302 9.70641 9.20505 11.3718C9.03941 12.0571 8.58563 12.985 8.07508 13.8427C8.00931 13.9675 7.9367 14.09 7.85954 14.208C7.82323 14.2625 7.76197 14.2942 7.69616 14.2942H1.78782C1.62899 14.2942 1.53597 14.1218 1.61993 13.9925Z" fill="white"/>
<path d="M27.2274 15.6626V17.0852C27.2274 17.1669 27.1775 17.2395 27.1049 17.2713C26.6602 17.4619 25.1377 18.1607 24.5047 19.0411C22.8892 21.2896 21.6549 24.5047 18.8958 24.5047H7.38543C3.30588 24.5047 0 21.1875 0 17.0943V16.9627C0 16.8538 0.0884694 16.7653 0.197389 16.7653H6.61402C6.74105 16.7653 6.83407 16.8833 6.82276 17.0081C6.77736 17.4256 6.85452 17.8521 7.05191 18.2401C7.43308 19.0139 8.22268 19.4972 9.0758 19.4972H12.2524V17.0172H9.11211C8.95102 17.0172 8.85575 16.8311 8.94877 16.6995C8.98278 16.6473 9.02138 16.5929 9.0622 16.5316C9.35945 16.1096 9.78373 15.4539 10.2058 14.7074C10.4939 14.2037 10.773 13.6659 10.9976 13.1259C11.043 13.0284 11.0793 12.9285 11.1156 12.8309C11.1769 12.6585 11.2404 12.4974 11.2858 12.3363C11.3312 12.2002 11.3674 12.0572 11.4037 11.9233C11.5104 11.465 11.5558 10.9795 11.5558 10.4758C11.5558 10.2784 11.5467 10.0719 11.5286 9.8745C11.5195 9.65896 11.4923 9.44337 11.465 9.22783C11.4469 9.03724 11.4128 8.84891 11.3765 8.65152C11.3312 8.36336 11.2676 8.0775 11.195 7.7893L11.1701 7.68043C11.1156 7.483 11.0702 7.2947 11.0067 7.09731C10.8274 6.47785 10.621 5.87433 10.4032 5.30937C10.3237 5.08473 10.233 4.86919 10.1422 4.65365C10.0084 4.32918 9.8722 4.03422 9.74743 3.75512C9.68391 3.62805 9.62945 3.51233 9.57499 3.39435C9.51373 3.26048 9.45022 3.12661 9.38666 2.99958C9.3413 2.90201 9.28909 2.81124 9.25278 2.72047L8.86481 2.00349C8.81035 1.90592 8.90111 1.7902 9.00774 1.8197L11.4356 2.47768H11.4424C11.4469 2.47768 11.4492 2.47998 11.4514 2.47998L11.7713 2.56845L12.123 2.66831L12.2524 2.70457V1.26154C12.2524 0.56496 12.8105 0 13.5003 0C13.8452 0 14.1583 0.140677 14.3829 0.369823C14.6075 0.599014 14.7482 0.912125 14.7482 1.26154V3.40345L15.0069 3.47602C15.0273 3.48287 15.0477 3.49192 15.0659 3.50553C15.1294 3.55319 15.2201 3.6235 15.3359 3.70976C15.4266 3.78233 15.5242 3.87084 15.6422 3.96161C15.8759 4.1499 16.155 4.3927 16.4613 4.6718C16.5429 4.74211 16.6224 4.81473 16.695 4.88734C17.0898 5.25491 17.5322 5.686 17.9543 6.16249C18.0722 6.29636 18.188 6.43249 18.3059 6.57542C18.4239 6.72065 18.5487 6.86358 18.6576 7.00655C18.8006 7.19714 18.9549 7.39453 19.0887 7.60101C19.1522 7.69858 19.2249 7.7984 19.2861 7.89597C19.4585 8.15687 19.6106 8.42692 19.7558 8.69692C19.8171 8.8217 19.8806 8.95783 19.935 9.0917C20.0961 9.45247 20.2232 9.82004 20.3049 10.1876C20.3298 10.267 20.348 10.3532 20.3571 10.4304V10.4486C20.3843 10.5574 20.3934 10.6732 20.4024 10.7911C20.4387 11.1678 20.4206 11.5444 20.3389 11.9233C20.3049 12.0845 20.2595 12.2365 20.205 12.3976C20.1506 12.5519 20.0961 12.713 20.0258 12.865C19.8897 13.1803 19.7285 13.4958 19.538 13.7907C19.4767 13.8996 19.4041 14.0154 19.3315 14.1243C19.2521 14.2399 19.1704 14.3489 19.0978 14.4555C18.998 14.5917 18.8913 14.7346 18.7824 14.8617C18.6848 14.9955 18.585 15.1294 18.4761 15.2474C18.3241 15.4266 18.1789 15.5968 18.0268 15.7602C17.9361 15.8668 17.8385 15.9757 17.7387 16.0733C17.6411 16.1822 17.5413 16.2797 17.4505 16.3705C17.2985 16.5225 17.1715 16.6405 17.0648 16.7381L16.8152 16.9673C16.7789 16.999 16.7313 17.0172 16.6814 17.0172H14.7482V19.4972H17.1805C17.7251 19.4972 18.2424 19.3043 18.6599 18.9503C18.8028 18.8255 19.4268 18.2855 20.1642 17.471C20.1891 17.4437 20.2209 17.4233 20.2572 17.4143L26.9756 15.472C27.1004 15.4357 27.2274 15.531 27.2274 15.6626Z" fill="white"/>
</svg>
