<svg width="29" height="21" viewBox="0 0 29 21" fill="none" xmlns="http://www.w3.org/2000/svg">
<path d="M28.719 5.23889C28.719 5.23889 28.4434 3.29337 27.5946 2.43911C26.5199 1.31478 25.3184 1.30927 24.7673 1.24314C20.8212 0.956543 14.8964 0.956543 14.8964 0.956543H14.8854C14.8854 0.956543 8.96064 0.956543 5.01449 1.24314C4.46335 1.30927 3.26186 1.31478 2.18714 2.43911C1.33839 3.29337 1.06833 5.23889 1.06833 5.23889C1.06833 5.23889 0.781738 7.52612 0.781738 9.80783V11.9463C0.781738 14.228 1.06282 16.5152 1.06282 16.5152C1.06282 16.5152 1.33839 18.4607 2.18163 19.315C3.25635 20.4393 4.66727 20.4007 5.29557 20.522C7.55524 20.7369 14.8909 20.8031 14.8909 20.8031C14.8909 20.8031 20.8212 20.792 24.7673 20.511C25.3184 20.4448 26.5199 20.4393 27.5946 19.315C28.4434 18.4607 28.719 16.5152 28.719 16.5152C28.719 16.5152 29.0001 14.2335 29.0001 11.9463V9.80783C29.0001 7.52612 28.719 5.23889 28.719 5.23889ZM11.9754 14.5421V6.61123L19.5976 10.5905L11.9754 14.5421Z" fill="white"/>
</svg>
